<?xml version="1.0" standalone="no"?>
<!DOCTYPE svg PUBLIC "-//W3C//DTD SVG 20010904//EN"
 "http://www.w3.org/TR/2001/REC-SVG-20010904/DTD/svg10.dtd">
<svg version="1.0" xmlns="http://www.w3.org/2000/svg"
 width="380.000000pt" height="152.000000pt" viewBox="0 0 380.000000 152.000000"
 preserveAspectRatio="xMidYMid meet">

<g transform="translate(0.000000,152.000000) scale(0.100000,-0.100000)"
fill="#000000" stroke="none">
<path d="M1070 1258 c-37 -141 -55 -202 -96 -316 -25 -70 -62 -162 -82 -206
l-36 -78 40 -38 c40 -37 41 -37 95 -29 30 5 95 11 144 13 83 4 90 6 93 26 2
12 -2 35 -8 51 -14 32 -18 32 -163 3 -82 -17 -77 -17 -77 -3 0 15 167 443 192
493 16 32 18 43 8 61 -10 19 -76 65 -93 65 -4 0 -11 -19 -17 -42z"/>
<path d="M1572 1273 c-18 -8 -55 -40 -82 -70 -126 -138 -195 -411 -135 -536
28 -60 68 -82 145 -81 151 1 304 131 375 317 45 120 45 246 0 289 -13 13 -27
21 -31 18 -4 -3 -6 -32 -5 -65 6 -152 -67 -345 -163 -433 -66 -60 -135 -90
-174 -76 -107 37 -63 315 74 472 53 61 113 92 178 92 59 0 57 13 -8 58 -56 37
-118 43 -174 15z"/>
<path d="M2268 1275 c-182 -67 -317 -302 -289 -501 14 -99 46 -144 118 -170
59 -21 111 -17 159 11 57 34 131 120 152 178 13 37 21 47 39 47 19 0 23 6 23
29 0 64 -47 75 -183 40 -99 -25 -108 -32 -79 -62 19 -18 32 -22 77 -20 63 3
65 -1 34 -63 -23 -50 -87 -111 -124 -120 -33 -8 -69 24 -87 75 -15 46 -14 152
2 222 27 118 121 248 212 293 61 30 71 31 92 10 22 -22 20 -38 -9 -72 -32 -38
-32 -57 0 -78 24 -16 27 -15 44 0 28 25 43 68 39 112 -2 31 -10 43 -37 61 -40
27 -122 30 -183 8z"/>
<path d="M2779 1270 c-160 -85 -285 -449 -208 -608 80 -163 370 -57 489 178
76 151 81 332 10 370 -19 10 -20 7 -20 -73 0 -249 -138 -477 -304 -504 -123
-20 -120 239 5 426 65 98 131 141 215 141 50 0 54 7 22 37 -60 55 -143 68
-209 33z"/>
<path d="M540 380 c-38 -38 -40 -103 -3 -108 30 -4 73 45 72 83 l-1 30 -10
-35 c-10 -36 -34 -70 -50 -70 -31 0 -11 85 23 95 11 4 17 11 14 16 -9 14 -23
11 -45 -11z"/>
<path d="M931 379 c-40 -43 -35 -109 7 -109 13 0 13 2 -2 13 -23 17 -13 60 20
86 13 10 20 21 17 25 -11 11 -22 7 -42 -15z"/>
<path d="M1408 389 c-10 -5 -18 -16 -18 -24 0 -14 69 -59 78 -51 2 3 -12 15
-32 27 -41 24 -38 44 5 35 30 -6 40 8 13 18 -21 8 -26 7 -46 -5z"/>
<path d="M1737 393 c-9 -2 -15 -8 -13 -12 3 -4 -2 -26 -10 -50 -8 -23 -12 -47
-9 -52 8 -12 65 -12 65 1 0 6 -12 10 -26 10 -20 0 -25 4 -20 16 3 9 6 18 6 20
0 2 9 4 20 4 11 0 20 5 20 10 0 6 -4 10 -10 10 -5 0 -10 7 -10 15 0 9 10 15
26 15 14 0 23 4 19 10 -6 10 -26 11 -58 3z"/>
<path d="M2113 393 c-14 -3 -20 -9 -17 -18 3 -8 2 -20 -2 -27 -9 -14 -12 -24
-16 -53 -2 -16 4 -21 30 -23 18 -2 32 1 32 7 0 6 -11 11 -24 11 -19 0 -23 4
-19 20 3 11 14 20 24 20 21 0 26 16 7 22 -18 6 0 28 23 28 11 0 17 5 14 10 -6
10 -13 11 -52 3z"/>
<path d="M2288 393 c-21 -5 -24 -19 -5 -26 9 -3 8 -13 -6 -42 -11 -23 -14 -42
-9 -47 6 -6 12 0 16 16 8 33 20 33 36 -1 7 -16 15 -23 17 -16 2 7 0 20 -6 30
-7 15 -5 22 10 31 23 15 25 48 3 56 -17 6 -29 6 -56 -1z m62 -27 c0 -13 -29
-31 -37 -23 -2 2 -1 12 3 21 8 20 34 21 34 2z"/>
<path d="M2476 373 c8 -29 9 -60 3 -78 -2 -5 1 -11 6 -12 6 -2 13 8 17 22 3
13 16 37 27 51 12 15 18 30 15 33 -4 3 -9 1 -11 -5 -2 -6 -10 -20 -18 -30 -13
-18 -14 -17 -21 14 -3 17 -11 32 -16 32 -6 0 -7 -11 -2 -27z"/>
<path d="M2695 349 c-9 -27 -19 -49 -22 -49 -3 0 -3 20 -1 45 4 34 2 45 -8 45
-10 0 -14 -16 -14 -60 0 -67 11 -75 37 -27 l18 32 3 -32 c2 -18 7 -33 11 -33
4 0 22 27 39 60 17 33 26 60 21 60 -5 0 -19 -19 -29 -42 l-20 -43 3 42 c4 62
-18 63 -38 2z"/>
<path d="M3102 393 c-6 -2 -10 -8 -7 -13 3 -4 -2 -24 -10 -44 -23 -55 -20 -66
20 -66 19 0 35 5 35 10 0 6 -12 10 -26 10 -20 0 -25 4 -20 16 3 9 6 18 6 20 0
2 9 4 20 4 11 0 20 5 20 10 0 6 -4 10 -10 10 -5 0 -10 7 -10 15 0 8 9 15 20
15 11 0 20 5 20 10 0 10 -35 12 -58 3z"/>
<path d="M3288 393 c-19 -5 -25 -23 -8 -23 6 0 4 -15 -5 -36 -18 -43 -19 -54
-5 -54 6 0 10 6 10 14 0 27 20 28 30 2 5 -14 14 -26 20 -26 13 0 13 6 -1 32
-9 16 -7 24 10 39 26 24 26 35 2 49 -20 10 -25 11 -53 3z m62 -23 c0 -5 -9
-14 -20 -20 -15 -8 -20 -8 -20 3 0 8 3 17 7 20 10 10 33 8 33 -3z"/>
<path d="M3488 393 c-10 -2 -15 -10 -11 -19 3 -8 1 -20 -5 -27 -6 -7 -12 -26
-14 -42 -3 -27 0 -30 30 -33 18 -2 32 1 32 7 0 6 -11 11 -24 11 -19 0 -23 4
-19 20 3 11 14 20 24 20 21 0 26 16 7 22 -18 6 0 28 23 28 11 0 17 5 14 10 -6
10 -26 11 -57 3z"/>
<path d="M357 341 c-23 -65 -22 -71 13 -71 17 0 30 5 30 10 0 6 -9 10 -20 10
-24 0 -24 1 -5 47 17 40 19 53 7 53 -4 0 -15 -22 -25 -49z"/>
<path d="M738 373 c-23 -27 -30 -60 -18 -83 14 -26 31 -25 58 3 27 29 28 37 2
37 -14 0 -19 -6 -17 -19 1 -11 -2 -21 -8 -23 -17 -5 -17 52 0 78 18 28 6 33
-17 7z"/>
<path d="M791 374 c0 -11 3 -14 6 -6 3 7 2 16 -1 19 -3 4 -6 -2 -5 -13z"/>
<path d="M1247 343 c-8 -27 -12 -55 -9 -63 4 -9 11 2 19 29 7 24 15 52 18 62
4 11 2 19 -4 19 -6 0 -17 -21 -24 -47z"/>
<path d="M1900 343 c0 -46 13 -83 24 -72 14 13 62 119 55 119 -5 0 -20 -21
-34 -47 l-26 -48 4 48 c4 35 1 47 -9 47 -10 0 -14 -14 -14 -47z"/>
<path d="M2886 340 c-10 -27 -16 -55 -13 -62 3 -7 10 2 17 20 14 38 40 43 40
7 0 -41 14 -29 32 28 19 61 14 73 -14 34 -25 -34 -40 -35 -32 -2 11 45 -12 26
-30 -25z"/>
<path d="M990 362 c0 -13 -7 -37 -17 -55 -14 -27 -14 -30 -1 -19 26 21 43 71
29 85 -8 8 -11 5 -11 -11z"/>
<path d="M1370 306 c0 -31 78 -48 87 -19 3 7 -3 9 -16 6 -12 -3 -32 2 -46 11
-21 14 -25 14 -25 2z"/>
</g>
</svg>
